<?xml version="1.0" encoding="UTF-8" standalone="no"?>
<!-- Created with Inkscape (http://www.inkscape.org/) -->

<svg
   xmlns:dc="http://purl.org/dc/elements/1.1/"
   xmlns:cc="http://creativecommons.org/ns#"
   xmlns:rdf="http://www.w3.org/1999/02/22-rdf-syntax-ns#"
   xmlns:svg="http://www.w3.org/2000/svg"
   xmlns="http://www.w3.org/2000/svg"
   xmlns:xlink="http://www.w3.org/1999/xlink"
   xmlns:sodipodi="http://sodipodi.sourceforge.net/DTD/sodipodi-0.dtd"
   xmlns:inkscape="http://www.inkscape.org/namespaces/inkscape"
   width="256"
   height="32"
   id="svg2"
   version="1.1"
   inkscape:version="0.48.4 r9939"
   sodipodi:docname="desktop_icons.svg">
  <defs
     id="defs4">
    <linearGradient
       id="linearGradient3864">
      <stop
         style="stop-color:#ffffff;stop-opacity:1;"
         offset="0"
         id="stop3866" />
      <stop
         style="stop-color:#e6e6e6;stop-opacity:1;"
         offset="1"
         id="stop3868" />
    </linearGradient>
    <radialGradient
       inkscape:collect="always"
       xlink:href="#linearGradient3864"
       id="radialGradient3870"
       cx="308.48917"
       cy="1187.9797"
       fx="308.48917"
       fy="1187.9797"
       r="173.64529"
       gradientTransform="matrix(1.621723,-0.8746681,0.78591022,1.4571568,-1125.4402,-273.26747)"
       gradientUnits="userSpaceOnUse" />
    <linearGradient
       inkscape:collect="always"
       xlink:href="#linearGradient3828-8"
       id="linearGradient4373"
       gradientUnits="userSpaceOnUse"
       x1="430.86566"
       y1="395.39072"
       x2="425.30286"
       y2="500.61383" />
    <linearGradient
       id="linearGradient3828-8">
      <stop
         style="stop-color:#000000;stop-opacity:1;"
         offset="0"
         id="stop3830-5" />
      <stop
         style="stop-color:#000000;stop-opacity:0;"
         offset="1"
         id="stop3832-1" />
    </linearGradient>
    <filter
       color-interpolation-filters="sRGB"
       inkscape:collect="always"
       id="filter3882-2"
       x="-0.11847362"
       width="1.2369472"
       y="-0.12156623"
       height="1.2431325">
      <feGaussianBlur
         inkscape:collect="always"
         stdDeviation="8.7631302"
         id="feGaussianBlur3884-4" />
    </filter>
    <filter
       color-interpolation-filters="sRGB"
       inkscape:collect="always"
       id="filter3870-2">
      <feGaussianBlur
         inkscape:collect="always"
         stdDeviation="1.4317689"
         id="feGaussianBlur3872-5" />
    </filter>
    <filter
       color-interpolation-filters="sRGB"
       inkscape:collect="always"
       id="filter3866-8">
      <feGaussianBlur
         inkscape:collect="always"
         stdDeviation="0.91527386"
         id="feGaussianBlur3868-8" />
    </filter>
    <filter
       color-interpolation-filters="sRGB"
       inkscape:collect="always"
       id="filter3944-7"
       x="-0.093524113"
       width="1.1870482"
       y="-0.1673854"
       height="1.3347708">
      <feGaussianBlur
         inkscape:collect="always"
         stdDeviation="6.3079233"
         id="feGaussianBlur3946-5" />
    </filter>
    <filter
       color-interpolation-filters="sRGB"
       inkscape:collect="always"
       id="filter3894-0"
       x="-0.25884625"
       width="1.5176924"
       y="-0.59092641"
       height="2.1818528">
      <feGaussianBlur
         inkscape:collect="always"
         stdDeviation="1.2903798"
         id="feGaussianBlur3896-0" />
    </filter>
    <filter
       color-interpolation-filters="sRGB"
       inkscape:collect="always"
       id="filter3900-5"
       x="-0.23460063"
       width="1.4692013"
       y="-0.14601634"
       height="1.2920327">
      <feGaussianBlur
         inkscape:collect="always"
         stdDeviation="7.1588444"
         id="feGaussianBlur3902-6" />
    </filter>
    <filter
       color-interpolation-filters="sRGB"
       inkscape:collect="always"
       id="filter3906-1"
       x="-0.27524889"
       width="1.5504978"
       y="-0.13372494"
       height="1.2674499">
      <feGaussianBlur
         inkscape:collect="always"
         stdDeviation="4.5763693"
         id="feGaussianBlur3908-7" />
    </filter>
    <filter
       color-interpolation-filters="sRGB"
       inkscape:collect="always"
       id="filter4147-2"
       x="-0.041289814"
       width="1.0825796"
       y="-0.66220033"
       height="2.3244007">
      <feGaussianBlur
         inkscape:collect="always"
         stdDeviation="1.5022405"
         id="feGaussianBlur4149-5" />
    </filter>
    <filter
       color-interpolation-filters="sRGB"
       inkscape:collect="always"
       id="filter4012-0"
       x="-0.25431886"
       width="1.5086377"
       y="-0.27152839"
       height="1.5430568">
      <feGaussianBlur
         inkscape:collect="always"
         stdDeviation="1.1394153"
         id="feGaussianBlur4014-6" />
    </filter>
    <linearGradient
       gradientTransform="matrix(1.2791,0,0,1.5007993,-69.082661,1970.8388)"
       y2="-611.9917"
       x2="176.08223"
       y1="-756.0083"
       x1="176.05905"
       gradientUnits="userSpaceOnUse"
       id="linearGradient4481"
       xlink:href="#linearGradient3953"
       inkscape:collect="always" />
    <linearGradient
       id="linearGradient3953">
      <stop
         style="stop-color:#7cb842;stop-opacity:1;"
         offset="0"
         id="stop3955" />
      <stop
         style="stop-color:#699c38;stop-opacity:1;"
         offset="1"
         id="stop3957" />
    </linearGradient>
    <linearGradient
       y2="-611.9917"
       x2="176.08223"
       y1="-756.0083"
       x1="176.05905"
       gradientTransform="matrix(1.4385399,0,0,1.5007993,183.41263,2036.244)"
       gradientUnits="userSpaceOnUse"
       id="linearGradient4183"
       xlink:href="#linearGradient3953"
       inkscape:collect="always" />
    <linearGradient
       inkscape:collect="always"
       xlink:href="#linearGradient3953"
       id="linearGradient4366"
       gradientUnits="userSpaceOnUse"
       gradientTransform="matrix(1.4385399,0,0,1.5007993,183.41263,2036.244)"
       x1="176.05905"
       y1="-756.0083"
       x2="176.08223"
       y2="-611.9917" />
    <linearGradient
       inkscape:collect="always"
       xlink:href="#linearGradient3828-8"
       id="linearGradient4368"
       gradientUnits="userSpaceOnUse"
       x1="430.86566"
       y1="395.39072"
       x2="425.30286"
       y2="500.61383" />
    <linearGradient
       inkscape:collect="always"
       xlink:href="#linearGradient3953"
       id="linearGradient4372"
       gradientUnits="userSpaceOnUse"
       gradientTransform="matrix(1.4385399,0,0,1.5007993,-78.76397,2227.8473)"
       x1="176.05905"
       y1="-756.0083"
       x2="176.08223"
       y2="-611.9917" />
  </defs>
  <sodipodi:namedview
     id="base"
     pagecolor="#ffffff"
     bordercolor="#666666"
     borderopacity="1.0"
     inkscape:pageopacity="0.0"
     inkscape:pageshadow="2"
     inkscape:zoom="1.6172305"
     inkscape:cx="285.8968"
     inkscape:cy="-107.81926"
     inkscape:document-units="px"
     inkscape:current-layer="layer1"
     showgrid="false"
     width="256px"
     inkscape:window-width="1621"
     inkscape:window-height="861"
     inkscape:window-x="50"
     inkscape:window-y="50"
     inkscape:window-maximized="0">
    <inkscape:grid
       type="xygrid"
       id="grid2985"
       empspacing="5"
       visible="true"
       enabled="true"
       snapvisiblegridlinesonly="true"
       spacingx="32px"
       spacingy="32px" />
  </sodipodi:namedview>
  <metadata
     id="metadata7">
    <rdf:RDF>
      <cc:Work
         rdf:about="">
        <dc:format>image/svg+xml</dc:format>
        <dc:type
           rdf:resource="http://purl.org/dc/dcmitype/StillImage" />
        <dc:title></dc:title>
      </cc:Work>
    </rdf:RDF>
  </metadata>
  <g
     inkscape:label="Layer 1"
     inkscape:groupmode="layer"
     id="layer1"
     transform="translate(0,-1020.3621)">
    <rect
       style="fill:#ff00ff;fill-opacity:1;fill-rule:nonzero;stroke:none;opacity:1"
       id="rect2987"
       width="32"
       height="32.000004"
       x="0"
       y="0"
       transform="translate(0,1020.3621)"
       inkscape:export-filename="C:\Users\mecharius\Dropbox\blitz\blitz\static\img\desktop_connect.png"
       inkscape:export-xdpi="90"
       inkscape:export-ydpi="90" />
    <path
       sodipodi:type="arc"
       style="fill:#44aa00;fill-opacity:1;fill-rule:nonzero;stroke:none"
       id="path2992"
       sodipodi:cx="6.7857141"
       sodipodi:cy="26.285715"
       sodipodi:rx="3.8392856"
       sodipodi:ry="3.8392856"
       d="m 10.625,26.285715 a 3.8392856,3.8392856 0 1 1 -7.6785715,0 3.8392856,3.8392856 0 1 1 7.6785715,0 z"
       transform="translate(0.80357143,1020.005)" />
    <path
       style="fill:none;stroke:#44aa00;stroke-width:5;stroke-linecap:butt;stroke-linejoin:miter;stroke-miterlimit:4;stroke-opacity:1;stroke-dasharray:none"
       d="M 3.125,17 C 11.111029,16.732143 17.232143,19.621873 17.5,29.946428"
       id="path2996"
       inkscape:connector-curvature="0"
       transform="translate(0,1020.3621)"
       sodipodi:nodetypes="cc" />
    <path
       sodipodi:nodetypes="cc"
       inkscape:connector-curvature="0"
       id="path3766"
       d="m 3.125,1028.9693 c 10.195668,0 22.857142,3.1455 22.857142,21.4286"
       style="fill:none;stroke:#44aa00;stroke-width:5;stroke-linecap:butt;stroke-linejoin:miter;stroke-miterlimit:4;stroke-opacity:1;stroke-dasharray:none" />
    <rect
       y="1020.3621"
       x="32"
       height="32.000004"
       width="32"
       id="rect3768"
       style="fill:#ff00ff;fill-opacity:1;fill-rule:nonzero;stroke:none;opacity:1"
       inkscape:export-filename="C:\Users\mecharius\Dropbox\blitz\blitz\static\img\desktop_disconnect.png"
       inkscape:export-xdpi="90"
       inkscape:export-ydpi="90" />
    <path
       transform="translate(32.80357,1020.005)"
       d="m 10.625,26.285715 a 3.8392856,3.8392856 0 1 1 -7.6785715,0 3.8392856,3.8392856 0 1 1 7.6785715,0 z"
       sodipodi:ry="3.8392856"
       sodipodi:rx="3.8392856"
       sodipodi:cy="26.285715"
       sodipodi:cx="6.7857141"
       id="path3770"
       style="fill:#aa0000;fill-opacity:1;fill-rule:nonzero;stroke:none"
       sodipodi:type="arc" />
    <path
       style="font-size:medium;font-style:normal;font-variant:normal;font-weight:normal;font-stretch:normal;text-indent:0;text-align:start;text-decoration:none;line-height:normal;letter-spacing:normal;word-spacing:normal;text-transform:none;direction:ltr;block-progression:tb;writing-mode:lr-tb;text-anchor:start;baseline-shift:baseline;color:#000000;fill:#aa0000;stroke:none;stroke-width:1;stroke-miterlimit:4;stroke-dasharray:none;marker:none;visibility:visible;display:inline;overflow:visible;enable-background:accumulate;font-family:Sans;-inkscape-font-specification:Sans"
       d="m 35.03125,1034.8617 0.1875,5 c 3.670585,-0.1232 6.573817,0.5046 8.46875,1.9687 1.894933,1.4641 3.19122,3.8565 3.3125,8.5313 l 5,-0.125 c -0.146577,-5.6498 -2.020905,-9.8489 -5.25,-12.3438 -3.229095,-2.4949 -7.403306,-3.176 -11.71875,-3.0312 z"
       id="path3772"
       inkscape:connector-curvature="0" />
    <path
       style="font-size:medium;font-style:normal;font-variant:normal;font-weight:normal;font-stretch:normal;text-indent:0;text-align:start;text-decoration:none;line-height:normal;letter-spacing:normal;word-spacing:normal;text-transform:none;direction:ltr;block-progression:tb;writing-mode:lr-tb;text-anchor:start;baseline-shift:baseline;color:#000000;fill:#aa0000;stroke:none;stroke-width:1;stroke-miterlimit:4;stroke-dasharray:none;marker:none;visibility:visible;display:inline;overflow:visible;enable-background:accumulate;font-family:Sans;-inkscape-font-specification:Sans"
       d="m 35.125,1026.4554 0,5 c 4.84074,0 10.065134,0.8232 13.84375,3.4375 3.778616,2.6143 6.5,6.9356 6.5,15.5 l 5,0 c 0,-9.7187 -3.555212,-16.0958 -8.65625,-19.625 -5.101038,-3.5292 -11.332572,-4.3125 -16.6875,-4.3125 z"
       id="path3774"
       inkscape:connector-curvature="0" />
    <rect
       inkscape:export-ydpi="90"
       inkscape:export-xdpi="90"
       inkscape:export-filename="C:\Users\mecharius\Dropbox\blitz\blitz\static\img\desktop_start.png"
       y="1020.3621"
       x="63.836037"
       height="32.000004"
       width="32"
       id="rect3809"
       style="fill:#ff00ff;fill-opacity:1;fill-rule:nonzero;stroke:none;opacity:1" />
    <rect
       inkscape:export-ydpi="90"
       inkscape:export-xdpi="90"
       inkscape:export-filename="C:\Users\mecharius\Dropbox\blitz\blitz\static\img\desktop_stop.png"
       style="fill:#ff00ff;fill-opacity:1;fill-rule:nonzero;stroke:none;opacity:1"
       id="rect3817"
       width="32"
       height="32.000004"
       x="95.836037"
       y="1020.3621" />
    <path
       style="fill:#44aa00;fill-opacity:1;stroke:none"
       d="m 70.406336,1047.7242 0,-22.7241 18.859402,11.362 z"
       id="path3828"
       inkscape:connector-curvature="0"
       sodipodi:nodetypes="cccc" />
    <rect
       style="fill:#aa0000;fill-opacity:1;fill-rule:nonzero;stroke:none"
       id="rect3830"
       width="20.405254"
       height="20.405254"
       x="101.63341"
       y="1026.1595" />
    <rect
       y="1020.3621"
       x="127.98976"
       height="32.000004"
       width="32"
       id="rect3832"
       style="fill:#ff00ff;fill-opacity:1;fill-rule:nonzero;stroke:none;stroke-width:0;stroke-miterlimit:4;stroke-dasharray:none;opacity:1"
       inkscape:export-filename="C:\Users\mecharius\Dropbox\blitz\blitz\static\img\desktop_exit.png"
       inkscape:export-xdpi="90"
       inkscape:export-ydpi="90" />
    <path
       style="fill:none;stroke:#aa0000;stroke-width:2;stroke-linecap:butt;stroke-linejoin:miter;stroke-miterlimit:4;stroke-opacity:1;stroke-dasharray:none"
       d="m 140.45482,1031.4154 0,-4.9467 12.98516,0 0,19.7869 -12.98516,0 0,-3.71"
       id="path3834"
       inkscape:connector-curvature="0"
       sodipodi:nodetypes="cccccc" />
    <path
       style="fill:none;stroke:#aa0000;stroke-width:2;stroke-linecap:butt;stroke-linejoin:miter;stroke-miterlimit:4;stroke-opacity:1;stroke-dasharray:none"
       d="m 148.72514,1035.8211 -14.6856,0 3.65208,-3.6521"
       id="path3838"
       inkscape:connector-curvature="0" />
    <path
       inkscape:connector-curvature="0"
       id="path3842"
       d="m 148.72514,1037.7647 -14.6856,0 3.65208,3.6521"
       style="fill:none;stroke:#aa0000;stroke-width:2;stroke-linecap:butt;stroke-linejoin:miter;stroke-miterlimit:4;stroke-opacity:1;stroke-dasharray:none" />
    <rect
       ry="0"
       y="1093.2307"
       x="-1.0701241"
       height="216.14"
       width="362.63217"
       id="rect3162"
       style="fill:url(#linearGradient4372);fill-opacity:1;stroke:none"
       inkscape:export-xdpi="86.860001"
       inkscape:export-ydpi="86.860001"
       inkscape:export-filename="C:\Users\mecharius\Dropbox\blitz\blitz\static\img\desktop_splash.png" />
    <rect
       style="fill:#333333;fill-opacity:1;stroke:none"
       id="rect5126"
       width="157.78607"
       height="216.14172"
       x="203.77689"
       y="1093.229" />
    <g
       id="g4334"
       inkscape:export-filename="C:\Users\mecharius\Dropbox\blitz\blitz\static\img\desktop_splash.png"
       inkscape:export-xdpi="86.864662"
       inkscape:export-ydpi="86.864662"
       transform="translate(-262.1766,181.17392)">
      <g
         transform="translate(0,40.714576)"
         id="g4328">
        <text
           sodipodi:linespacing="125%"
           id="text3949"
           y="974.56372"
           x="284.41095"
           style="font-size:13.23255825px;font-style:normal;font-weight:bold;line-height:125%;letter-spacing:0px;word-spacing:0px;fill:#303030;fill-opacity:1;stroke:none;font-family:Droid Sans;-inkscape-font-specification:Droid Sans Bold"
           xml:space="preserve"><tspan
             style="font-style:normal;font-variant:normal;font-weight:bold;font-stretch:normal;fill:#303030;fill-opacity:1;font-family:Droid Sans;-inkscape-font-specification:Droid Sans Bold"
             y="974.56372"
             x="284.41095"
             id="tspan3951"
             sodipodi:role="line">Intelligent Data Logging</tspan></text>
        <text
           sodipodi:linespacing="125%"
           id="text4176"
           y="991.83215"
           x="309.73663"
           style="font-size:10.32548618px;font-style:normal;font-weight:normal;line-height:125%;letter-spacing:0px;word-spacing:0px;fill:#303030;fill-opacity:1;stroke:none;font-family:Droid Sans;-inkscape-font-specification:Droid Sans"
           xml:space="preserve"><tspan
             style="font-style:normal;font-variant:normal;font-weight:normal;font-stretch:normal;fill:#303030;fill-opacity:1;font-family:Droid Sans;-inkscape-font-specification:Droid Sans"
             y="991.83215"
             x="309.73663"
             id="tspan4178"
             sodipodi:role="line">www.blitzlogger.com</tspan></text>
      </g>
      <g
         id="g4302">
        <text
           xml:space="preserve"
           style="font-size:22.13523865px;font-style:normal;font-weight:normal;line-height:125%;letter-spacing:0px;word-spacing:0px;fill:#f9f9f9;fill-opacity:1;stroke:none;font-family:Helvetica;-inkscape-font-specification:Helvetica"
           x="477.61203"
           y="1079.6022"
           id="text3177"
           sodipodi:linespacing="125%"><tspan
             sodipodi:role="line"
             id="tspan3179"
             x="477.61203"
             y="1079.6022"
             style="font-style:normal;font-variant:normal;font-weight:bold;font-stretch:normal;fill:#f9f9f9;fill-opacity:1;font-family:Droid Sans;-inkscape-font-specification:Droid Sans Bold">Blitz Logger</tspan></text>
        <g
           transform="matrix(0.22174191,0,0,0.22174191,448.93059,934.0804)"
           id="g4086"
           inkscape:transform-center-x="-9.2195288"
           inkscape:transform-center-y="-9.219528">
          <path
             transform="matrix(0.90751445,0,0,0.90751445,29.921636,3.8917814)"
             d="m 633.19814,316.9549 c 0,119.09267 -96.54369,215.63636 -215.63637,215.63636 -119.09268,0 -215.63637,-96.54369 -215.63637,-215.63636 0,-119.09268 96.54369,-215.63637 215.63637,-215.63637 119.09268,0 215.63637,96.54369 215.63637,215.63637 z"
             sodipodi:ry="215.63637"
             sodipodi:rx="215.63637"
             sodipodi:cy="316.9549"
             sodipodi:cx="417.56177"
             id="path4088"
             style="opacity:0.5;fill:#cccccc;fill-opacity:1;stroke:none"
             sodipodi:type="arc" />
          <path
             style="opacity:0.53497943;fill:#ffffff;fill-opacity:1;stroke:none"
             d="m 324.72195,301.86718 c 7.62743,2.53539 9.79673,6.8627 11.7618,12.59278 2.97418,8.67265 -9.97979,14.78195 -11.8657,14.74758 -6.30842,-0.11501 -4.79703,-12.47371 -4.90091,-13.25826 -0.63292,-4.78055 3.25594,-14.66343 5.00481,-14.0821 z"
             id="path4090"
             inkscape:connector-curvature="0"
             sodipodi:nodetypes="sssss" />
          <path
             sodipodi:nodetypes="sssssssssssssssss"
             inkscape:connector-curvature="0"
             id="path4092"
             d="m 610.79821,365.00561 c -3.01373,-10.09241 -29.84026,-24.16094 -56.12951,-31.45814 -15.2388,-4.22989 -19.52411,-22.75721 -24.36679,-36.21868 -7.51903,-20.90104 -3.56213,-41.93493 -9.13915,-63.43578 -11.529,-44.4473 -40.64978,-125.25856 -44.83652,-126.6811 -30.13293,-10.238288 -32.77443,89.08598 -57.33203,100.64199 -11.49691,5.41008 -18.14808,10.89065 -28.229,3.15614 -25.68999,-19.71047 -54.29603,-80.73655 -64.82231,-73.21221 -8.4624,6.04907 -0.40956,59.30291 0.79715,73.58895 1.45902,17.27297 9.7723,15.72161 6.97707,42.03254 -1.71097,16.10505 -21.61779,18.66329 -12.55701,46.93637 13.00674,40.58599 -38.57839,46.43661 -45.05864,84.85402 -1.87269,11.10197 33.97893,63.73713 64.08833,53.89765 12.09643,-3.95301 27.52679,-14.10796 42.82631,-13.04161 11.6862,0.81451 25.30881,4.52506 30.94591,14.79412 6.92964,12.62366 -14.79508,37.48181 -2.78123,45.42183 63.62087,42.04732 221.43757,-48.20439 199.61742,-121.27609 z"
             style="fill:#232323;fill-opacity:1;stroke:none" />
          <path
             style="opacity:0.72781893;fill:#615d5c;fill-opacity:1;stroke:none"
             d="m 370.73398,312.22765 c 0.5363,-9.25979 4.70711,-12.97548 10.50226,-16.88456 8.77117,-5.91649 19.46575,6.68443 19.99336,8.79615 1.76485,7.06378 -10.67819,10.58272 -11.52122,10.93388 -5.13688,2.13978 -19.09735,-0.72231 -18.9744,-2.84547 z"
             id="path4094"
             inkscape:connector-curvature="0"
             sodipodi:nodetypes="sssss" />
          <path
             sodipodi:nodetypes="sssss"
             inkscape:connector-curvature="0"
             id="path4096"
             d="m 372.60715,311.34897 c 0.46474,-8.02432 4.07907,-11.24427 9.10103,-14.63178 7.60089,-5.1271 16.86857,5.79257 17.32579,7.62254 1.52938,6.12132 -9.25348,9.17075 -9.98402,9.47506 -4.45151,1.85429 -16.54935,-0.62594 -16.4428,-2.46582 z"
             style="opacity:0.53497943;fill:#ffffff;fill-opacity:1;stroke:none" />
          <path
             transform="matrix(1.0035991,-0.46941137,0.46941137,1.0035991,-135.4959,199.15239)"
             sodipodi:nodetypes="ccsssssc"
             inkscape:connector-curvature="0"
             id="path4098"
             d="m 522.14286,284.50504 c -13.67201,10.42432 -25.52303,69.16592 -71.63163,102.76688 0,0 -10.54294,9.33744 -41.40002,8.06606 -5.86316,-0.24158 -66.8116,-10.08701 -64.42047,-8.53603 2.39114,1.55098 16.8851,19.55739 15.05764,21.5562 -25.70048,28.11019 10.03419,84.28557 89.28151,68.49717 110.19158,-21.95341 74.62266,-95.15051 70.72501,-96.32888 -32.71055,-9.88929 1.91044,-96.53871 2.38796,-96.0214 z"
             style="opacity:0.71666721;fill:url(#linearGradient4368);fill-opacity:1;stroke:none;filter:url(#filter3882-2)" />
          <path
             transform="matrix(1.1749453,-0.54955477,0.65832081,1.4074865,-256.08786,113.16358)"
             d="m 390.04517,286.9191 c 0,2.85919 -2.31784,5.17703 -5.17704,5.17703 -2.85919,0 -5.17703,-2.31784 -5.17703,-5.17703 0,-2.8592 2.31784,-5.17703 5.17703,-5.17703 2.8592,0 5.17704,2.31783 5.17704,5.17703 z"
             sodipodi:ry="5.177032"
             sodipodi:rx="5.177032"
             sodipodi:cy="286.9191"
             sodipodi:cx="384.86813"
             id="path4100"
             style="opacity:0.5020576;fill:#004cff;fill-opacity:1;stroke:none"
             sodipodi:type="arc" />
          <path
             transform="matrix(1.0035991,-0.46941137,0.46941137,1.0035991,-135.4959,199.15239)"
             sodipodi:nodetypes="cccc"
             inkscape:connector-curvature="0"
             id="path4102"
             d="m 499.52043,287.67671 c 18.67639,-40.29196 25.16247,-78.5522 27.7792,-116.16755 -22.81405,19.28427 -44.03955,30.62579 -73.23606,81.82236 8.9901,17.61059 11.02275,42.17862 45.45686,34.34519 z"
             style="opacity:0.28806589;fill:#a05a2c;stroke:none;filter:url(#filter3870-2)" />
          <path
             transform="matrix(1.0035991,-0.46941137,0.46941137,1.0035991,-135.4959,199.15239)"
             sodipodi:nodetypes="cccsc"
             inkscape:connector-curvature="0"
             id="path4104"
             d="m 398.25265,212.92542 c -18.41998,0.41864 -19.86514,3.83284 -28.03174,6.06091 8.92301,-30.18099 17.84603,-63.95891 26.76904,-78.7919 0,-12.50116 12.30079,11.25837 13.13198,51.51778 0.13251,6.41798 -6.07083,22.97006 -11.86928,21.21321 z"
             style="opacity:0.28800001;fill:#a05a2c;fill-opacity:1;stroke:none;filter:url(#filter3866-8)" />
          <path
             transform="matrix(1.0035991,-0.46941137,0.46941137,1.0035991,-135.4959,199.15239)"
             sodipodi:nodetypes="ccccc"
             inkscape:connector-curvature="0"
             id="path4106"
             d="m 345.97725,239.18938 c 13.67884,27.61153 52.88833,6.90531 86.62058,-4.29315 22.57491,-6.54391 22.86825,-12.48636 27.52665,-16.41497 -19.97232,5.57652 -37.70758,-2.70823 -60.10407,-2.52539 -23.9712,1.78769 -40.09685,11.42093 -54.04316,23.23351 z"
             style="opacity:0.19341562;fill:#5a5a5a;fill-opacity:1;stroke:none;filter:url(#filter3944-7)" />
          <path
             sodipodi:nodetypes="ccccc"
             inkscape:connector-curvature="0"
             id="path4108"
             d="m 280.76663,374.55295 c 3.67357,0.47205 21.07458,-14.55531 34.0148,6.02176 -0.46175,6.03471 7.20762,7.96164 -13.65364,24.30201 -9.00804,2.90437 -12.27214,0.36626 -21.73693,-9.18134 -4.19688,-7.88075 -4.3874,-11.86825 1.37577,-21.14243 z"
             style="opacity:0.35;fill:#464646;fill-opacity:1;stroke:none" />
          <path
             transform="matrix(1.0035991,-0.46941137,0.46941137,1.0035991,-135.4959,199.15239)"
             sodipodi:nodetypes="cscc"
             inkscape:connector-curvature="0"
             id="path4110"
             d="m 267.85714,309.1479 c 0,0 2.50203,-3.61904 4.46429,-4.10715 2.5079,-0.62384 11.86259,3.21074 11.86259,3.21074 -2.87669,2.10354 -13.81984,6.82226 -16.32688,0.89641 z"
             style="opacity:0.2;fill:#ffffff;fill-opacity:1;stroke:none;filter:url(#filter3894-0)" />
          <path
             transform="matrix(0.5561709,-0.26013668,0.26013668,0.5561709,132.94713,227.16035)"
             style="opacity:0.28806589;fill:#a05a2c;stroke:none;filter:url(#filter3900-5)"
             d="m 499.52043,287.67671 c 18.67639,-40.29196 53.51858,-114.64179 48.40183,-144.52366 -34.03636,19.28427 -65.64271,58.9819 -93.85869,110.17847 8.9901,17.61059 11.02275,42.17862 45.45686,34.34519 z"
             id="path4112"
             inkscape:connector-curvature="0"
             sodipodi:nodetypes="cccc" />
          <path
             transform="matrix(0.63486405,-0.29694368,0.29694368,0.63486405,44.424456,208.93515)"
             style="opacity:0.28800001;fill:#a05a2c;fill-opacity:1;stroke:none;filter:url(#filter3906-1)"
             d="m 398.25265,212.92542 c -18.41998,0.41864 -19.86514,3.83284 -28.03174,6.06091 8.92301,-30.18099 17.84603,-63.95891 26.76904,-78.7919 0,-12.50116 12.30079,11.25837 13.13198,51.51778 0.13251,6.41798 -6.07083,22.97006 -11.86928,21.21321 z"
             id="path4114"
             inkscape:connector-curvature="0"
             sodipodi:nodetypes="cccsc" />
          <path
             transform="matrix(1.0035991,-0.46941137,0.46941137,1.0035991,-135.4959,199.15239)"
             sodipodi:nodetypes="cc"
             inkscape:connector-curvature="0"
             id="path4116"
             d="m 278.30076,364.3731 c 51.03215,4.82018 73.76991,4.85409 87.31881,-2.03924"
             style="opacity:0.74074073;fill:none;stroke:#000000;stroke-width:2;stroke-linecap:butt;stroke-linejoin:miter;stroke-miterlimit:4;stroke-opacity:1;stroke-dasharray:none;filter:url(#filter4147-2)" />
          <path
             sodipodi:nodetypes="ccccc"
             inkscape:connector-curvature="0"
             id="path4118"
             d="m 410.21432,438.73777 c 1.68096,8.99645 1.5313,10.79629 1.99004,15.77912 50.26196,7.2784 113.92053,-19.19424 149.2965,-121.03798 l -16.0073,-5.98867 c -26.81082,75.02125 -68.3177,121.13355 -135.27924,111.24753 z"
             style="fill:#7bb842;fill-opacity:1;stroke:none" />
          <path
             sodipodi:type="arc"
             style="fill:#004cff;fill-opacity:1;stroke:none;filter:url(#filter4012-0)"
             id="path4120"
             sodipodi:cx="384.86813"
             sodipodi:cy="286.9191"
             sodipodi:rx="5.177032"
             sodipodi:ry="5.177032"
             d="m 390.04517,286.9191 c 0,2.85919 -2.31784,5.17703 -5.17704,5.17703 -2.85919,0 -5.17703,-2.31784 -5.17703,-5.17703 0,-2.8592 2.31784,-5.17703 5.17703,-5.17703 2.8592,0 5.17704,2.31783 5.17704,5.17703 z"
             transform="matrix(0.75493453,-0.35310399,0.42298915,0.90434862,-26.91795,181.9158)" />
        </g>
      </g>
    </g>
  </g>
</svg>
